# xmcd
#
# Track frame offsets: 
#        150
#        15984
#        34889
#        49987
#        71054
#        85442
#        101827
#        120111
#        137951
#        155707
#
# Disc length: 2277 seconds
#
# Revision: 0
# Processed by: cddbd v1.5.2PL0 Copyright (c) Steve Scherf et al.
# Submitted via: ExactAudioCopy v0.99pb4
#
DISCID=8708e30a
DTITLE=Desiree Dorion - Soul Back Jack
DYEAR=2010
DGENRE=Country
TTITLE0=Soul Back Jack [Dorion, Chaturvedi]
TTITLE1=Bad Outlaw [Dorion, Martin]
TTITLE2=The Last Time I Saw L.C. [Giles, Godard, Brokop]
TTITLE3=Can't Have Me [Dorion, Chaturvedi, Turner]
TTITLE4=Freedom Ain't Free [Dorion, Chaturvedi, Burke-Gaffney]
TTITLE5=Kiss And Make Up [Dorion, Chaturvedi]
TTITLE6=I'll Always Come Home (If I Can Come Home To You) [Dorion, Cha
TTITLE6=turvedi]
TTITLE7=All I Need Is You [Dorion, Chaturvedi, Dupas]
TTITLE8=Like I'm Gonna Love You [Dorion, Schur]
TTITLE9=Don't Give Up On Me [Dorion, Chaturvedi]
EXTD=
EXTT0=
EXTT1=
EXTT2=
EXTT3=
EXTT4=
EXTT5=
EXTT6=
EXTT7=
EXTT8=
EXTT9=
PLAYORDER=
